<svg xmlns="http://www.w3.org/2000/svg" viewBox="0 0 1054.64 165.68"><defs><style>.cls-1{fill:#ed1e79;stroke:#ed1e79;stroke-miterlimit:10;}</style></defs><g id="レイヤー_2" data-name="レイヤー 2"><g id="レイヤー_1-2" data-name="レイヤー 1"><path class="cls-1" d="M95.14,97.07a23.69,23.69,0,0,0-6.88-7.62A40.36,40.36,0,0,0,77.93,84a67,67,0,0,0-12-3.08,97.08,97.08,0,0,1-34.61-12,9.18,9.18,0,0,1-2.93-3.12,8.34,8.34,0,0,1-1.56-4.59A51.05,51.05,0,0,1,29.55,45q2.72-8.13,6.93-12.72Q43.28,24.64,61,19t39.79-5.69q13.22,0,20.43,2t7.2,6.24q0,6.89-1.88,10.65t-4,5a61.49,61.49,0,0,1-7.57,3.35,78.08,78.08,0,0,0-10,4.23A73.73,73.73,0,0,0,97.53,49c-2,1.35-3.28,2-3.76,2s-.92-.25-.92-.74c0-1,1.08-2.61,3.26-4.72a31.85,31.85,0,0,1,8-5.56c3.36-1.77,5-2.9,5-3.39q0-1.2-5.6-1.2a152.73,152.73,0,0,0-31.4,3q-14.41,3-22.72,8t-8.3,10.1c0,2.14,1.14,3.65,3.44,4.54S52,63.41,59.8,65.49a148,148,0,0,1,21,7.16q13.31,5.7,19.74,11.84T107,98.26a24.19,24.19,0,0,1-2.52,10.51,31.36,31.36,0,0,1-7.39,9.69,42.47,42.47,0,0,1-11.2,7.25A91.9,91.9,0,0,1,72.24,130a149.36,149.36,0,0,1-17.81,3.16,153.28,153.28,0,0,1-18.31,1.15q-16.06,0-25.84-3T.5,122.13q0-2.76,3.3-8.58t7.81-7.85a24.87,24.87,0,0,1,7.62-1.79c2.44-.15,3.67.14,3.67.87a.77.77,0,0,1-.28.55,2.27,2.27,0,0,1-.64.46l-.73.37c-1.23.49-2.22.87-3,1.15a10.84,10.84,0,0,0-1.83.82,1.29,1.29,0,0,0-.69,1.15q0,1.92,19,1.93A248.3,248.3,0,0,0,61.82,110a75,75,0,0,0,18.64-4.31A52.11,52.11,0,0,0,95.14,97.07Z"/><path class="cls-1" d="M132.32,78.25q14-12.66,27.08-18.82t20.29-6.15a5.08,5.08,0,0,1,3.58,1.61,12.14,12.14,0,0,1,2.61,3.72,8.58,8.58,0,0,1,1,3.12,2.64,2.64,0,0,1-1.29,2.43,25.18,25.18,0,0,1-4.5,1.88c.43,1,1,2.24,1.66,3.77s1.19,2.77,1.56,3.71a7.28,7.28,0,0,1,.55,2.53q0,2.2-4.45,8.21t-6.25,8.86a12.91,12.91,0,0,0-1.79,7q0,6.8,6.25,6.79,6.42,0,20.1-12v5.6q-23.22,25.78-33.23,25.79-3.59,0-5.1-2.34T158.85,117q0-7.24,5.23-21-13.4,14.86-19.92,21.16t-10.74,6.29c-1.34,0-3-1.17-5-3.49a33.71,33.71,0,0,1-5.37-9,29.44,29.44,0,0,1-2.34-11.52,26.71,26.71,0,0,1,.83-7.21,17.44,17.44,0,0,1,3.21-5.92A82,82,0,0,1,132.32,78.25Zm44-10.1q-23.86,10.93-34,18.55t-10.14,15.69a10,10,0,0,0,1,4.82,3.06,3.06,0,0,0,2.75,1.89,10,10,0,0,0,3.58-1.29A72.06,72.06,0,0,0,157.11,93Q165.09,83.86,176.29,68.15Z"/><path class="cls-1" d="M240.18,98.26l-16.34,13.86q-11.65,10.2-15.6,10.19-3.59,0-7.53-8.21t-4-14.37a21.85,21.85,0,0,1,1.61-8.86,64.36,64.36,0,0,1,5.55-9.41,125.09,125.09,0,0,1,10.74-13.21,78.24,78.24,0,0,1,9.09-8.4q3.94-3,5.51-3,2.48,0,4.82,2.57a7.89,7.89,0,0,1,2.34,5.33q0,1.74-2.53,5.6a80,80,0,0,1-8,9.77,177,177,0,0,1-15.2,14.19L209,99.37a5.84,5.84,0,0,0-.73,2.57,2.18,2.18,0,0,0,2.47,2.47q2.58,0,12.08-6.51a152.82,152.82,0,0,0,20.6-17.54q4.32-4.31,7.16-7.62t5.15-6.19a47.17,47.17,0,0,1,3.8-4.36,4.76,4.76,0,0,1,2.71-1.56,3.43,3.43,0,0,1,3.58,1.92,13.17,13.17,0,0,1,1.29,6.52c0,1.65-.74,3.72-2.2,6.2s-4.23,6.7-8.27,12.67-8.06,12.14-12.07,18.54-8.09,13.6-12.25,21.62c.18-.19,2.06-2,5.64-5.51s7.36-7.13,11.34-10.92,7.25-6.84,9.82-9.14,5.79-5,9.64-8v6.15q-12.39,13.3-22.44,25.24T230.77,145l-6.38,8.35c-1.65,2.14-3.13,4.15-4.45,6s-2.42,3.31-3.3,4.32-1.61,1.51-2.16,1.51c-1.29,0-2.43-1.27-3.44-3.81a18.62,18.62,0,0,1-1.52-6.74,10.34,10.34,0,0,1,1-4.68Q217.15,135.07,240.18,98.26Z"/><path class="cls-1" d="M279.1,78.25q14-12.66,27.08-18.82t20.29-6.15a5.06,5.06,0,0,1,3.58,1.61,12.35,12.35,0,0,1,2.62,3.72,8.71,8.71,0,0,1,1,3.12,2.65,2.65,0,0,1-1.28,2.43,25.52,25.52,0,0,1-4.5,1.88c.42,1,1,2.24,1.65,3.77s1.19,2.77,1.56,3.71a7.06,7.06,0,0,1,.55,2.53q0,2.2-4.45,8.21t-6.24,8.86a12.82,12.82,0,0,0-1.79,7q0,6.8,6.24,6.79,6.42,0,20.1-12v5.6q-23.22,25.78-33.23,25.79-3.57,0-5.09-2.34T305.63,117q0-7.24,5.24-21Q297.46,110.84,291,117.13t-10.74,6.29c-1.35,0-3-1.17-5-3.49a33.71,33.71,0,0,1-5.37-9,29.44,29.44,0,0,1-2.34-11.52,26.75,26.75,0,0,1,.82-7.21,17.44,17.44,0,0,1,3.21-5.92A84.53,84.53,0,0,1,279.1,78.25Zm44-10.1q-23.86,10.93-34,18.55t-10.14,15.69a10.17,10.17,0,0,0,1,4.82,3.06,3.06,0,0,0,2.75,1.89,9.94,9.94,0,0,0,3.58-1.29A72.06,72.06,0,0,0,303.89,93Q311.87,83.86,323.07,68.15Z"/><path class="cls-1" d="M413.86,94.68v6.15a193.25,193.25,0,0,1-17.26,18.23q-7,6.19-11.65,6.19a13.44,13.44,0,0,1-8.13-2.66,25.61,25.61,0,0,1-6.52-7.34,143.52,143.52,0,0,1-6.84-13Q358.78,108,355,113t-5.23,6.65a4,4,0,0,1-2.67,1.65q-2.47,0-3.58-3.16a29.74,29.74,0,0,1-1.1-9.23,63.36,63.36,0,0,1,2-15.92,71.47,71.47,0,0,1,5.69-14.92,138.42,138.42,0,0,1,9.55-15.65q5.82-8.4,13.08-17.58,10-12.68,17.25-20.7A97.77,97.77,0,0,1,402.62,12q5.37-4.08,8.95-4.08,4.4,0,4.4,3.94,0,3.4-16.25,24.47T352.36,93.86v7.89q20.83-22.31,33.55-33.14T405.6,57.78c1.9,0,3.36,1.12,4.41,3.35a18.22,18.22,0,0,1,1.56,7.76q0,9-7.71,16.66t-23.69,17.58a32.17,32.17,0,0,0,4.87,6,7.66,7.66,0,0,0,5.32,1.88,12.36,12.36,0,0,0,6.15-1.92,47.64,47.64,0,0,0,6.75-4.87Q406.7,101.29,413.86,94.68ZM377.6,99.37a71.06,71.06,0,0,0,8.68-7.12,65.06,65.06,0,0,0,8.85-10q3.67-5.19,3.68-8.68,0-1.47-1.29-1.47-3.5,0-12,6.7A98.08,98.08,0,0,0,369,96Q372.47,96,377.6,99.37Z"/><path class="cls-1" d="M424.05,78.25Q438,65.59,451.13,59.43t20.29-6.15A5.08,5.08,0,0,1,475,54.89a12.14,12.14,0,0,1,2.61,3.72,8.58,8.58,0,0,1,1,3.12,2.64,2.64,0,0,1-1.29,2.43,24.86,24.86,0,0,1-4.5,1.88c.43,1,1,2.24,1.66,3.77s1.19,2.77,1.56,3.71a7.06,7.06,0,0,1,.55,2.53q0,2.2-4.45,8.21t-6.25,8.86a12.91,12.91,0,0,0-1.79,7q0,6.8,6.25,6.79,6.42,0,20.1-12v5.6q-23.22,25.78-33.23,25.79-3.58,0-5.1-2.34T450.58,117q0-7.24,5.23-21-13.4,14.86-19.92,21.16t-10.74,6.29c-1.34,0-3-1.17-5-3.49a33.71,33.71,0,0,1-5.37-9,29.44,29.44,0,0,1-2.34-11.52,26.71,26.71,0,0,1,.83-7.21,17.44,17.44,0,0,1,3.21-5.92A82,82,0,0,1,424.05,78.25Zm44-10.1Q444.16,79.08,434,86.7t-10.14,15.69a10,10,0,0,0,1,4.82,3.06,3.06,0,0,0,2.75,1.89,10,10,0,0,0,3.58-1.29A72.06,72.06,0,0,0,448.84,93Q456.82,83.86,468,68.15Z"/><path class="cls-1" d="M615.91,105.33l3,2.3q-1.2,2.57-2.3,4.49L614,116.81q-1.56,2.75-2.39,4.13-6.89,12-12.94,12a5.75,5.75,0,0,1-4.41-2,7.87,7.87,0,0,1-1.83-5.5q0-5,3.53-13.59A177.3,177.3,0,0,1,606.86,90.6Q614.25,78,625.45,62T650.7,28.31a134.27,134.27,0,0,0-19.19-1.19A159.88,159.88,0,0,0,603.1,30a217.1,217.1,0,0,0-27.26,6.56Q564.22,40.25,564.22,42a.88.88,0,0,0,.46.87,4.89,4.89,0,0,0,1.52.37c.7.09,1.6.2,2.71.32q10.74,1.47,10.74,3.31c0,.61-1.56.9-4.69.87s-6.88,0-11.29,0a48.27,48.27,0,0,1-7.57-.41A4.52,4.52,0,0,1,553,45.71a6.34,6.34,0,0,1-.78-3.53,50.82,50.82,0,0,1,.92-6.8q1.74-9.72,5.37-15.6a26.37,26.37,0,0,1,11.1-9.6q7.49-3.7,20.61-5.92Q612.23.5,626.65.5a126.08,126.08,0,0,1,16.79.87q6.15.87,9,2.53a8.73,8.73,0,0,1,3.67,3.26,48.09,48.09,0,0,1,2.06,5.55l2.85,8.44c.18.56.34,1,.46,1.34a10,10,0,0,1,.32,1.05,4.36,4.36,0,0,1,.14,1A12.87,12.87,0,0,1,660.38,31a90.63,90.63,0,0,1-5.87,8.53q-4.28,5.7-6.29,8.91Q624.53,86.88,615.91,105.33Z"/><path class="cls-1" d="M660.89,78.25q14-12.66,27.08-18.82t20.28-6.15a5.06,5.06,0,0,1,3.58,1.61,12,12,0,0,1,2.62,3.72,8.71,8.71,0,0,1,1,3.12,2.65,2.65,0,0,1-1.28,2.43,25.52,25.52,0,0,1-4.5,1.88l1.65,3.77c.68,1.53,1.2,2.77,1.56,3.71a7.06,7.06,0,0,1,.55,2.53q0,2.2-4.45,8.21t-6.24,8.86a12.91,12.91,0,0,0-1.79,7q0,6.8,6.24,6.79,6.44,0,20.11-12v5.6Q704,126.26,694,126.26q-3.57,0-5.09-2.34T687.42,117q0-7.24,5.23-21-13.41,14.86-19.92,21.16T662,123.42c-1.35,0-3-1.17-5-3.49a33.71,33.71,0,0,1-5.37-9,29.44,29.44,0,0,1-2.34-11.52,26.75,26.75,0,0,1,.82-7.21,17.48,17.48,0,0,1,3.22-5.92A82,82,0,0,1,660.89,78.25Zm44-10.1Q681,79.08,670.85,86.7T660.7,102.39a10.17,10.17,0,0,0,1,4.82,3.07,3.07,0,0,0,2.76,1.89,10.07,10.07,0,0,0,3.58-1.29A72,72,0,0,0,685.67,93Q693.67,83.86,704.86,68.15Z"/><path class="cls-1" d="M768.38,94.87q-8.08,9.18-14.46,15.6a127.49,127.49,0,0,1-10.37,9.6q-4,3.17-5.46,3.16-2.39,0-5.37-3.85a35.18,35.18,0,0,1-5.1-9.83,36,36,0,0,1-2.11-12.11q0-8.91,8.63-18a79,79,0,0,1,19.64-15q11-6,16.53-6,4.5,0,8.81,5.69Q786.19,49.42,792.57,38a145.23,145.23,0,0,1,10.69-17.07q4.32-5.6,6.15-5.6a4.9,4.9,0,0,1,3.72,2,6.67,6.67,0,0,1,1.7,4.46q0,4.77-7,16.38T794.08,60.72a195.14,195.14,0,0,0-11.65,21.71q-4.87,10.69-4.87,19.78,0,8.27,5.32,8.26,3.23,0,8.08-3.62a167.69,167.69,0,0,0,13.86-12.17v6.7Q785,127,774.26,127a6.58,6.58,0,0,1-6.2-3.31c-1.26-2.2-1.88-5.48-1.88-9.82A90.06,90.06,0,0,1,768.38,94.87Zm6.79-22.4A119.47,119.47,0,0,0,756,81.33q-11,6.11-13.31,8.4c-1.35,1.22-2.54,3.52-3.58,6.88a28.62,28.62,0,0,0-1.56,7.62,3.67,3.67,0,0,0,.91,2.57,3,3,0,0,0,2.3,1,5.52,5.52,0,0,0,2.94-1.1,58.1,58.1,0,0,0,5.28-4.32c2.41-2.14,4-3.51,4.72-4.13q1.56-1.37,6.93-5.92t7.85-7.11a26.9,26.9,0,0,0,4.22-5.74A23.4,23.4,0,0,0,775.17,72.47Z"/><path class="cls-1" d="M815.56,78.25q14-12.66,27.08-18.82t20.29-6.15a5.06,5.06,0,0,1,3.58,1.61,12.35,12.35,0,0,1,2.62,3.72,8.71,8.71,0,0,1,1,3.12,2.65,2.65,0,0,1-1.28,2.43,25.52,25.52,0,0,1-4.5,1.88L866,69.81c.67,1.53,1.19,2.77,1.56,3.71a7.06,7.06,0,0,1,.55,2.53q0,2.2-4.45,8.21t-6.24,8.86a12.82,12.82,0,0,0-1.79,7q0,6.8,6.24,6.79,6.42,0,20.1-12v5.6q-23.22,25.78-33.23,25.79-3.57,0-5.09-2.34T842.09,117q0-7.24,5.24-21-13.41,14.86-19.92,21.16t-10.74,6.29c-1.35,0-3-1.17-5-3.49a33.71,33.71,0,0,1-5.37-9,29.44,29.44,0,0,1-2.34-11.52,26.75,26.75,0,0,1,.82-7.21,17.44,17.44,0,0,1,3.21-5.92A84.53,84.53,0,0,1,815.56,78.25Zm44-10.1q-23.87,10.93-34,18.55t-10.14,15.69a10.17,10.17,0,0,0,1,4.82,3.06,3.06,0,0,0,2.75,1.89,9.94,9.94,0,0,0,3.58-1.29A72.06,72.06,0,0,0,840.35,93Q848.33,83.86,859.53,68.15Z"/><path class="cls-1" d="M936.37,94.87V101q-9.82,9.63-16,15a69,69,0,0,1-11.57,8.26,21.8,21.8,0,0,1-10.51,2.94,13.26,13.26,0,0,1-9.27-4,27,27,0,0,1-6.61-10.47A39.35,39.35,0,0,1,880,99a22.11,22.11,0,0,1,2.75-11.11q2.76-4.86,10.65-12.58A105.53,105.53,0,0,1,910.8,61.13c5.36-3.33,9.56-5,12.63-5A7.64,7.64,0,0,1,929,58.42a7.85,7.85,0,0,1,2.3,5.79q0,2.94-3,8.35A47.22,47.22,0,0,1,921.5,82q-3.76,4-6,4c-1.59,0-2.39-.85-2.39-2.57.06-.49.11-1,.14-1.37s.05-.86.05-1.29c0-.73-.26-1.15-.78-1.24a2.57,2.57,0,0,0-1.88.69q-9.18,6.42-12.58,9a27.51,27.51,0,0,0-5.37,5.28,9.24,9.24,0,0,0-2,5.6,11.76,11.76,0,0,0,3.48,8.81,12.47,12.47,0,0,0,9.09,3.4q5.79,0,13.91-4.45A151.52,151.52,0,0,0,936.37,94.87Z"/><path class="cls-1" d="M1004.67,94.68v5.79q-8,8.16-13.82,13.35a73.77,73.77,0,0,1-10.19,7.85c-2.91,1.78-5.37,2.66-7.39,2.66q-7.15,0-7.16-8.44,0-6.8,4.45-15.74a178.64,178.64,0,0,1,12.81-21.07A54.83,54.83,0,0,0,969.05,90.6q-2.85,3.25-4.78,5.55-6,6.7-11.47,13.73T945.36,119c-1.28,1.41-2.51,2.11-3.67,2.11q-7.16,0-7.16-17.62a52.61,52.61,0,0,1,1.75-12.76q1.74-7,9.36-18.45Q961.71,48.23,973.13,33a258.27,258.27,0,0,1,19-23.13q7.53-7.86,10.1-7.67a14,14,0,0,1,5.18,1.29c1.32.67,2,1.44,2,2.29q0,2.29-3.17,7.58T995.3,29.78q-8.35,11.85-11.84,16.66T973,60.12Q966.11,69,960.37,75.91t-13.08,15v11q12.3-13.68,21.3-22.4a140.23,140.23,0,0,1,15.24-13.18q6.24-4.44,9.18-4.45c1.83,0,3.55,1.09,5.14,3.26s2.38,4,2.38,5.37a4.48,4.48,0,0,1-.91,2.3Q993,80.73,989.11,85.92a67.1,67.1,0,0,0-6,9.27,16,16,0,0,0-2.11,7q0,4.32,4.13,4.32Q989.52,106.53,1004.67,94.68Z"/><path class="cls-1" d="M1048.54,94.68v6.7q-8.89,11.49-16.61,17.31t-13.13,5.83q-7.53,0-11.2-7.9a40.34,40.34,0,0,1-3.67-17.25,31,31,0,0,1,.74-6.84,25.09,25.09,0,0,1,1.74-5.37c.67-1.41,1.93-3.61,3.76-6.61q13-20.3,23.87-20.29,5.6,0,5.6,4.31,0,2.94-3.63,9.18a40,40,0,0,1-6.47,8.91,145.64,145.64,0,0,0-10.42,10.74,10.69,10.69,0,0,0-2.43,6.88,7.07,7.07,0,0,0,2.48,5.51,9.3,9.3,0,0,0,6.43,2.2q4.31,0,9.5-3.16A117.24,117.24,0,0,0,1048.54,94.68Zm-6.24-41a6.68,6.68,0,0,1-4.36-1.74,5.52,5.52,0,0,1-2.06-4.41q0-4,3.85-9t8-5a6.49,6.49,0,0,1,4.59,1.7,6.35,6.35,0,0,1,1.83,4.91q0,3.95-3.76,8.72T1042.3,53.65Z"/></g></g></svg>